<?xml version="1.0" ?><!-- Uploaded to: SVG Repo, www.svgrepo.com, Generator: SVG Repo Mixer Tools -->
<svg fill="#000000" width="800px" height="800px" viewBox="0 0 128 128" data-name="Layer 1" id="Layer_1" xmlns="http://www.w3.org/2000/svg"><title/><path d="M3.4,112.66a.83.83,0,0,0,.37.08,1,1,0,0,0,.93-.62,64.31,64.31,0,0,1,6.09-11.46,1,1,0,0,0,.54,0c4.6-1.47,7.24-1.46,8.07,0a5,5,0,0,0,4,2.57h.35a4.71,4.71,0,0,0,3.82-1.92c2.85-3.8-.09-6.83-1.51-8.29a8.11,8.11,0,0,1-.61-.65,2.63,2.63,0,0,1,.08-.86A3.83,3.83,0,0,0,24,87.72a4.11,4.11,0,0,0-1.13-.56A63.79,63.79,0,0,1,58.36,72.52a1,1,0,0,0,.91-1.08,1,1,0,0,0-1.09-.91A65.75,65.75,0,0,0,2.85,111.36,1,1,0,0,0,3.4,112.66Zm17-23.34a.68.68,0,0,0,.2-.07,2.05,2.05,0,0,1,2.21.1,1.82,1.82,0,0,1,.75,1.84,2.91,2.91,0,0,0,.3,2.42,9,9,0,0,0,.77.85c1.73,1.78,3,3.44,1.34,5.69a2.74,2.74,0,0,1-2.43,1.12,3,3,0,0,1-2.44-1.55c-1.63-2.94-5.78-2.28-8.64-1.5A63.57,63.57,0,0,1,20.44,89.32Z"/><path d="M63,21.51v54a1,1,0,1,0,2,0V72.31c.87,0,1.75,0,2.61.07a64.32,64.32,0,0,1,55.69,39.74,1,1,0,0,0,.92.62.84.84,0,0,0,.38-.08,1,1,0,0,0,.55-1.3,66.33,66.33,0,0,0-57.42-41c-.9,0-1.82-.06-2.73-.07V44.53h8.43l1,2.07a3.33,3.33,0,0,0,3,1.92H90.09a1,1,0,0,0,1-1V32.67a3.93,3.93,0,0,0-3.93-3.93H82.54V27.62a2.88,2.88,0,0,0-2.87-2.87H65V21.51a3.45,3.45,0,1,0-2,0Zm24.16,9.23a1.94,1.94,0,0,1,1.93,1.93v5H87.63a1,1,0,0,0,0,2h1.46v6.89H77.42a1.33,1.33,0,0,1-1.2-.77l-.58-1.22h5.9a1,1,0,0,0,1-1V30.74Zm-7.49-4a.87.87,0,0,1,.87.87v6.07a1.28,1.28,0,0,0-.27,0H72.83a1,1,0,0,0,0,2h7.44a1.28,1.28,0,0,0,.27,0v6.94H65V26.75ZM64,16.78a1.45,1.45,0,1,1-1.45,1.45A1.45,1.45,0,0,1,64,16.78Z"/><path d="M22.23,41.81h4.35a1,1,0,0,0,0-2H22.23a1,1,0,0,0,0,2Z"/><path d="M33.11,41.81h4.35a1,1,0,1,0,0-2H33.11a1,1,0,0,0,0,2Z"/><path d="M29.84,49.42a1,1,0,0,0,1-1V44.07a1,1,0,0,0-2,0v4.35A1,1,0,0,0,29.84,49.42Z"/><path d="M29.84,38.54a1,1,0,0,0,1-1V33.19a1,1,0,0,0-2,0v4.35A1,1,0,0,0,29.84,38.54Z"/><path d="M104.93,67.65h3.27a1,1,0,1,0,0-2h-3.27a1,1,0,0,0,0,2Z"/><path d="M113.09,67.65h3.27a1,1,0,0,0,0-2h-3.27a1,1,0,0,0,0,2Z"/><path d="M110.65,73.37a1,1,0,0,0,1-1V69.1a1,1,0,0,0-2,0v3.27A1,1,0,0,0,110.65,73.37Z"/><path d="M110.65,65.2a1,1,0,0,0,1-1V60.94a1,1,0,0,0-2,0V64.2A1,1,0,0,0,110.65,65.2Z"/><path d="M47.14,96.08a8.07,8.07,0,0,0,3.47-5.2,1,1,0,1,0-2-.38,6.16,6.16,0,0,1-7.24,4.84,1,1,0,0,0-1.18.79A1,1,0,0,0,41,97.3a7.89,7.89,0,0,0,1.6.16A8.07,8.07,0,0,0,47.14,96.08Z"/><path d="M40.7,92.33a3.8,3.8,0,0,0,.82.08,4.23,4.23,0,1,0-.82-.08Zm-1.36-4.56a2.23,2.23,0,0,1,.94-1.41A2.2,2.2,0,0,1,41.51,86,3.27,3.27,0,0,1,42,86a2.2,2.2,0,0,1,1.41,1,2.17,2.17,0,0,1,.33,1.66,2.21,2.21,0,0,1-2.6,1.74,2.17,2.17,0,0,1-1.41-.94A2.22,2.22,0,0,1,39.34,87.77Z"/><path d="M75.15,111.87a1,1,0,0,0,1.22-.7,9.92,9.92,0,0,1,19.28.63,1,1,0,0,0,1,.8.75.75,0,0,0,.21,0,1,1,0,0,0,.77-1.18,11.91,11.91,0,0,0-23.15-.76A1,1,0,0,0,75.15,111.87Z"/><path d="M51,78.93a26.92,26.92,0,0,1,5.65-1.21,1,1,0,0,0,.91-1.07,1,1,0,0,0-1.07-.92A27.56,27.56,0,0,0,50.37,77a1,1,0,0,0-.62,1.27,1,1,0,0,0,1,.67A1.26,1.26,0,0,0,51,78.93Z"/><path d="M75.17,83.9a1,1,0,0,0-1.41,0l-5.85,5.85a1,1,0,0,0,0,1.42,1,1,0,0,0,.7.29,1,1,0,0,0,.71-.29l5.85-5.85A1,1,0,0,0,75.17,83.9Z"/><path d="M71.33,96.08a1,1,0,0,0,.71-.29l3.67-3.67a1,1,0,0,0,0-1.42,1,1,0,0,0-1.41,0l-3.67,3.68a1,1,0,0,0,0,1.41A1,1,0,0,0,71.33,96.08Z"/><path d="M36.81,111.52,31,105.67a1,1,0,0,0-1.42,0,1,1,0,0,0,0,1.41l5.85,5.85a1,1,0,0,0,1.42,0A1,1,0,0,0,36.81,111.52Z"/><path d="M40.73,111.59a1,1,0,0,0,.7-1.71l-3.67-3.67a1,1,0,0,0-1.41,0,1,1,0,0,0,0,1.42L40,111.3A1,1,0,0,0,40.73,111.59Z"/><path d="M116.71,112.75a1,1,0,0,0,.24,0,1,1,0,0,0,.73-1.21c-.79-3.2-6.42-11.43-6.66-11.78a1,1,0,0,0-1.65,1.13c1.57,2.3,5.78,8.76,6.37,11.13A1,1,0,0,0,116.71,112.75Z"/><path d="M89.41,89.61c.81.52,1.67,1.07,2.57,1.67s1.74,1.17,2.56,1.73c3.6,2.45,5.69,3.83,7.23,3.83a2.12,2.12,0,0,0,.44,0,1.88,1.88,0,0,0,1.21-.8c1.64-2.5-2.66-7-7.36-10.09S85.54,80.6,83.89,83.09a1.92,1.92,0,0,0-.28,1.49C83.93,86.12,86,87.43,89.41,89.61ZM86.3,84c1.4,0,4.58.9,8.65,3.59,5.12,3.39,7.07,6.58,6.82,7.27-.85.07-3.88-2-6.1-3.5-.83-.56-1.69-1.15-2.58-1.74h0c-.91-.6-1.79-1.16-2.61-1.68-2.15-1.38-4.83-3.09-4.92-3.73C85.64,84.07,85.9,84,86.3,84Z"/></svg>