<?xml version="1.0" encoding="iso-8859-1"?>
<!-- Uploaded to: SVG Repo, www.svgrepo.com, Generator: SVG Repo Mixer Tools -->
<svg fill="#000000" height="800px" width="800px" version="1.1" id="Layer_1" xmlns="http://www.w3.org/2000/svg" xmlns:xlink="http://www.w3.org/1999/xlink" 
	 viewBox="0 0 382 382" xml:space="preserve">
<g>
	<g>
		<g>
			<path d="M230,3C146,3,78,71,78,155c0,37.6,13.6,72,36.4,98.4l-112,112c-3.2,3.2-3.2,8,0,11.2C4,378.2,6,379,8,379s4-0.8,5.6-2.4
				L125.2,265c27.2,26,64.4,42,104.8,42c84,0,152-68,152-152S314,3,230,3z M230,291c-74.8,0-136-61.2-136-136S155.2,19,230,19
				s136,61.2,136,136S304.8,291,230,291z"/>
			<path d="M140,102.2c1.6,1.2,3.2,1.6,4.8,1.6c2.4,0,4.8-1.2,6.4-3.2l3.6-4.8c2.8-3.6,2-8.4-1.6-11.2c-3.6-2.8-8.4-2-11.2,1.6
				l-3.6,4.8C135.6,94.6,136.4,99.4,140,102.2z"/>
			<path d="M165.2,225c-19.6-17.6-31.2-43.2-31.2-70c0-8.4,1.2-16.4,3.2-24.4c1.2-4.4-1.2-8.8-5.6-10c-4.4-1.2-8.8,1.2-10,5.6
				c-2.4,9.2-4,18.8-4,28.4c0,31.2,13.2,61.2,36.8,82.4c1.6,1.2,3.6,2,5.2,2c2,0,4.4-0.8,6-2.8C168.4,233,168.4,227.8,165.2,225z"/>
		</g>
	</g>
</g>
</svg>